<?xml version="1.0" encoding="utf-8"?><svg xmlns="http://www.w3.org/2000/svg" xmlns:xlink="http://www.w3.org/1999/xlink" width="1958" height="707" preserveAspectRatio="xMidYMid" viewBox="0 0 1958 707" style="z-index:1;display:block;background-color:rgb(255, 255, 255);animation-play-state:paused" ><g transform="translate(979,353.5) scale(1,1) translate(-979,-353.5)" style="transform:matrix(1, 0, 0, 1, 0, 0);animation-play-state:paused" ><linearGradient id="lg-0.056222375508642175" x1="0" x2="1" y1="0" y2="0" style="animation-play-state:paused" ><stop stop-color="#ff00ff" offset="0" style="animation-play-state:paused" ></stop>

  
<stop stop-color="#00ffff" offset="1" style="animation-play-state:paused" ></stop></linearGradient>
<path d="M 0 0 L 0 598.419 Q 195.8 717.241 391.6 696.311 T 783.2 656.078 T 1174.8 566.385 T 1566.4 513.052 T 1958 503.148 L 1958 0 Z" fill="url(#lg-0.056222375508642175)" opacity="0.4" style="opacity:0.4;animation-play-state:paused" ></path>
<path d="M 0 0 L 0 648.871 Q 195.8 586.922 391.6 566.932 T 783.2 622.403 T 1174.8 570.168 T 1566.4 658.874 T 1958 609.511 L 1958 0 Z" fill="url(#lg-0.056222375508642175)" opacity="0.4" style="opacity:0.4;animation-play-state:paused" ></path>
<path d="M 0 0 L 0 695.225 Q 195.8 537.848 391.6 519.707 T 783.2 688.873 T 1174.8 559.855 T 1566.4 510.79 T 1958 662.753 L 1958 0 Z" fill="url(#lg-0.056222375508642175)" opacity="0.4" style="opacity:0.4;animation-play-state:paused" ></path>
<path d="M 0 0 L 0 545.385 Q 195.8 726.193 391.6 679.816 T 783.2 537.468 T 1174.8 597.084 T 1566.4 636.417 T 1958 624.262 L 1958 0 Z" fill="url(#lg-0.056222375508642175)" opacity="0.4" style="opacity:0.4;animation-play-state:paused" ></path>
<path d="M 0 0 L 0 650.635 Q 195.8 639.072 391.6 597.22 T 783.2 651.564 T 1174.8 717.734 T 1566.4 664.401 T 1958 686.315 L 1958 0 Z" fill="url(#lg-0.056222375508642175)" opacity="0.4" style="opacity:0.4;animation-play-state:paused" ></path></g></svg>